<?xml version="1.0" encoding="UTF-8" standalone="no"?>
<svg width="1440px" height="900px" viewBox="0 0 1440 900" version="1.1" xmlns="http://www.w3.org/2000/svg" xmlns:xlink="http://www.w3.org/1999/xlink">
    <!-- Generator: Sketch 39.1 (31720) - http://www.bohemiancoding.com/sketch -->
    <title>layer-2-waves-bottom</title>
    <desc>Created with Sketch.</desc>
    <defs>
        <linearGradient x1="49.9999911%" y1="11.8129992%" x2="50%" y2="86.5632972%" id="linearGradient-1">
            <stop stop-color="#0060FF" offset="0%"/>
            <stop stop-color="#008FFF" offset="14.8678071%"/>
            <stop stop-color="#FFFFFF" stop-opacity="0" offset="100%"/>
        </linearGradient>
        <linearGradient x1="50%" y1="0%" x2="50%" y2="86.5632972%" id="linearGradient-2">
            <stop stop-color="#0060FF" offset="0%"/>
            <stop stop-color="#008FFF" offset="13.799426%"/>
            <stop stop-color="#FFFFFF" stop-opacity="0" offset="100%"/>
        </linearGradient>
        <linearGradient x1="50.3150702%" y1="-19.7174888%" x2="50%" y2="86.5632972%" id="linearGradient-3">
            <stop stop-color="#0060FF" offset="0%"/>
            <stop stop-color="#008FFF" offset="11.6610025%"/>
            <stop stop-color="#6FC0FF" stop-opacity="0.565440004" offset="51.2587471%"/>
            <stop stop-color="#FFFFFF" stop-opacity="0" offset="100%"/>
        </linearGradient>
        <rect id="path-4" x="579" y="0" width="1440" height="900"/>
        <mask id="mask-5" maskContentUnits="userSpaceOnUse" maskUnits="objectBoundingBox" x="0" y="0" width="1440" height="900" fill="white">
            <use xlink:href="#path-4"/>
        </mask>
    </defs>
    <g id="Page-1" stroke="none" stroke-width="1" fill="none" fill-rule="evenodd">
        <g id="Publisher-Landing-Page">
            <g id="layer-2-waves-bottom" transform="translate(-579.000000, 0.000000)">
                <path d="M504.130059,442.16548 C691.864452,454.388075 667.242003,197.708554 924.56032,197.708568 C1181.87864,197.708582 1230.78133,499.03973 1579.62254,499.03973 C1928.46375,499.03973 2064.10063,3.63044509e-07 2400.03027,0 C2735.9599,-3.63044509e-07 2793.14798,274.513429 2793.14798,274.513429 L2976,707.999974 L565.009569,708 C565.009569,708 316.395665,429.942884 504.130059,442.16548 Z" id="Path-1288" fill="url(#linearGradient-1)"/>
                <path d="M548.559224,812.65436 C713.349953,825.911976 791.320793,595.480258 972.404531,595.480271 C1153.48827,595.480284 1286.43211,828.053938 1500.77484,828.053938 C1715.11758,828.053938 1826.18453,502 2065.25067,502 C2304.31681,502 2478,828.053946 2478,828.053946 L2478,1101 L601.99844,1101 C601.99844,1101 383.768495,799.396743 548.559224,812.65436 Z" id="Path-1288" fill="url(#linearGradient-2)"/>
                <path d="M63.4536331,700.16548 C233.315594,712.388075 211.037218,455.708554 443.858669,455.708568 C676.680119,455.708582 720.927242,757.03973 1036.55855,757.03973 C1352.18986,757.03973 1474.91403,258 1778.86295,258 C2082.81187,258 2134.55561,532.513429 2134.55561,532.513429 L2300,965.999974 L118.537375,966 C118.537375,966 -106.408328,687.942884 63.4536331,700.16548 Z" id="Path-1288" fill="url(#linearGradient-3)"/>
                <path d="M279.735018,844.903926 C439.642445,856.081048 515.302749,661.810568 691.020369,661.810579 C866.737988,661.81059 995.742254,857.886876 1203.7333,857.886876 C1411.72434,857.886876 1519.5,583 1751.48181,583 C1983.46362,583 2152,857.886883 2152,857.886883 L2152,1088 L331.590651,1088 C331.590651,1088 119.82759,833.726804 279.735018,844.903926 Z" id="Path-1288" fill="#FFFFFF"/>
                <use id="cutter" stroke-opacity="0.01" stroke="#FFFFFF" mask="url(#mask-5)" stroke-width="2" xlink:href="#path-4"/>
            </g>
        </g>
    </g>
</svg>